<svg width="30" height="30" viewBox="0 0 30 30" fill="none" xmlns="http://www.w3.org/2000/svg">
<path d="M28.3124 17.9875L14.9999 27.6625L1.68744 17.9875C1.50897 17.8563 1.37659 17.6719 1.30923 17.4609C1.24187 17.2498 1.243 17.0229 1.31244 16.8125L2.83744 12.0875L5.88744 2.70001C5.91702 2.62352 5.96411 2.55502 6.02494 2.50001C6.12399 2.40954 6.25329 2.35938 6.38744 2.35938C6.52159 2.35938 6.65089 2.40954 6.74994 2.50001C6.81417 2.56209 6.86149 2.63954 6.88744 2.72501L9.93744 12.0875H20.0624L23.1124 2.70001C23.142 2.62352 23.1891 2.55502 23.2499 2.50001C23.349 2.40954 23.4783 2.35937 23.6124 2.35938C23.7466 2.35938 23.8759 2.40954 23.9749 2.50001C24.0392 2.56209 24.0865 2.63954 24.1124 2.72501L27.1624 12.1125L28.7499 16.8125C28.8131 17.0294 28.8046 17.2608 28.7258 17.4725C28.647 17.6842 28.502 17.8648 28.3124 17.9875V17.9875Z" stroke="black" stroke-width="2" stroke-linecap="round" stroke-linejoin="round"/>
</svg>
